<svg xmlns="http://www.w3.org/2000/svg" xmlns:xlink="http://www.w3.org/1999/xlink" width="500" zoomAndPan="magnify" viewBox="0 0 375 187.499995" height="250" preserveAspectRatio="xMidYMid meet" version="1.0"><defs><g/></defs><g fill="#fffbfa" fill-opacity="1"><g transform="translate(47.305027, 93.193056)"><g><path d="M 60.8125 -47.875 L 70 -47.875 C 70.4375 -47.875 70.757812 -47.734375 70.96875 -47.453125 C 71.175781 -47.171875 71.175781 -46.800781 70.96875 -46.34375 L 50.046875 0 C 49.628906 0.894531 49.09375 1.34375 48.4375 1.34375 C 47.789062 1.34375 47.28125 0.894531 46.90625 0 L 36 -27.046875 L 25.125 0 C 24.75 0.894531 24.234375 1.34375 23.578125 1.34375 C 22.921875 1.34375 22.382812 0.894531 21.96875 0 L 1.0625 -46.34375 C 0.851562 -46.800781 0.84375 -47.171875 1.03125 -47.453125 C 1.21875 -47.734375 1.550781 -47.875 2.03125 -47.875 L 11.21875 -47.875 C 11.945312 -47.875 12.4375 -47.539062 12.6875 -46.875 L 23.5625 -20.65625 L 34.34375 -47.59375 C 34.445312 -47.84375 34.609375 -48.070312 34.828125 -48.28125 C 35.046875 -48.488281 35.375 -48.59375 35.8125 -48.59375 C 36.207031 -48.59375 36.523438 -48.5 36.765625 -48.3125 C 37.003906 -48.125 37.175781 -47.882812 37.28125 -47.59375 L 48.46875 -20.625 L 59.34375 -46.875 C 59.59375 -47.539062 60.082031 -47.875 60.8125 -47.875 Z M 60.8125 -47.875 "/></g></g></g><g fill="#fffbfa" fill-opacity="1"><g transform="translate(143.071638, 93.193056)"><g><path d="M 33.8125 -17.640625 L 42.453125 -1.53125 C 42.679688 -1.070312 42.707031 -0.703125 42.53125 -0.421875 C 42.351562 -0.140625 42.023438 0 41.546875 0 L 32 0 C 31.34375 0 30.859375 -0.320312 30.546875 -0.96875 L 22.96875 -15.953125 L 15.671875 -15.953125 L 15.671875 -1.28125 C 15.671875 -0.425781 15.25 0 14.40625 0 L 6.015625 0 C 5.160156 0 4.734375 -0.425781 4.734375 -1.28125 L 4.734375 -46.59375 C 4.734375 -47.445312 5.160156 -47.875 6.015625 -47.875 L 23.875 -47.875 C 27.21875 -47.875 30.015625 -47.472656 32.265625 -46.671875 C 34.523438 -45.867188 36.328125 -44.757812 37.671875 -43.34375 C 39.023438 -41.9375 40 -40.28125 40.59375 -38.375 C 41.1875 -36.476562 41.484375 -34.414062 41.484375 -32.1875 C 41.484375 -28.675781 40.820312 -25.679688 39.5 -23.203125 C 38.1875 -20.722656 36.289062 -18.867188 33.8125 -17.640625 Z M 22.15625 -38.453125 L 15.671875 -38.453125 L 15.671875 -25.375 L 22.15625 -25.375 C 22.632812 -25.375 23.226562 -25.394531 23.9375 -25.4375 C 24.644531 -25.476562 25.382812 -25.597656 26.15625 -25.796875 C 26.9375 -26.003906 27.664062 -26.347656 28.34375 -26.828125 C 29.019531 -27.304688 29.570312 -27.972656 30 -28.828125 C 30.425781 -29.679688 30.640625 -30.769531 30.640625 -32.09375 C 30.640625 -33.363281 30.441406 -34.398438 30.046875 -35.203125 C 29.648438 -36.003906 29.132812 -36.625 28.5 -37.0625 C 27.863281 -37.507812 27.164062 -37.832031 26.40625 -38.03125 C 25.65625 -38.226562 24.910156 -38.347656 24.171875 -38.390625 C 23.429688 -38.429688 22.757812 -38.453125 22.15625 -38.453125 Z M 22.15625 -38.453125 "/></g></g></g><g fill="#fffbfa" fill-opacity="1"><g transform="translate(212.285683, 93.193056)"><g><path d="M 25.5 -47.875 L 46.84375 -1.53125 C 47.03125 -1.070312 47.035156 -0.703125 46.859375 -0.421875 C 46.679688 -0.140625 46.351562 0 45.875 0 L 36.6875 0 C 35.957031 0 35.46875 -0.332031 35.21875 -1 L 33.09375 -6.296875 L 14.703125 -6.296875 L 12.59375 -1 C 12.34375 -0.332031 11.851562 0 11.125 0 L 1.9375 0 C 1.476562 0 1.15625 -0.140625 0.96875 -0.421875 C 0.78125 -0.703125 0.789062 -1.070312 1 -1.53125 L 22.34375 -47.875 C 22.757812 -48.789062 23.28125 -49.25 23.90625 -49.25 C 24.53125 -49.25 25.0625 -48.789062 25.5 -47.875 Z M 23.90625 -29.421875 L 18.046875 -14.671875 L 29.796875 -14.671875 Z M 23.90625 -29.421875 "/></g></g></g><g fill="#fffbfa" fill-opacity="1"><g transform="translate(283.899426, 93.193056)"><g><path d="M 14.40625 0 L 6.015625 0 C 5.160156 0 4.734375 -0.425781 4.734375 -1.28125 L 4.734375 -46.59375 C 4.734375 -47.445312 5.160156 -47.875 6.015625 -47.875 L 23.875 -47.875 C 27.21875 -47.875 30.015625 -47.472656 32.265625 -46.671875 C 34.523438 -45.867188 36.328125 -44.757812 37.671875 -43.34375 C 39.023438 -41.9375 40 -40.28125 40.59375 -38.375 C 41.1875 -36.476562 41.484375 -34.414062 41.484375 -32.1875 C 41.484375 -28.78125 40.867188 -25.867188 39.640625 -23.453125 C 38.410156 -21.035156 36.632812 -19.179688 34.3125 -17.890625 C 31.988281 -16.597656 29.164062 -15.953125 25.84375 -15.953125 L 15.671875 -15.953125 L 15.671875 -1.28125 C 15.671875 -0.425781 15.25 0 14.40625 0 Z M 15.671875 -38.453125 L 15.671875 -25.375 L 22.15625 -25.375 C 22.632812 -25.375 23.226562 -25.394531 23.9375 -25.4375 C 24.644531 -25.476562 25.382812 -25.597656 26.15625 -25.796875 C 26.9375 -26.003906 27.664062 -26.347656 28.34375 -26.828125 C 29.019531 -27.304688 29.570312 -27.972656 30 -28.828125 C 30.425781 -29.679688 30.640625 -30.769531 30.640625 -32.09375 C 30.640625 -33.363281 30.441406 -34.398438 30.046875 -35.203125 C 29.648438 -36.003906 29.132812 -36.625 28.5 -37.0625 C 27.863281 -37.507812 27.164062 -37.832031 26.40625 -38.03125 C 25.65625 -38.226562 24.910156 -38.347656 24.171875 -38.390625 C 23.429688 -38.429688 22.757812 -38.453125 22.15625 -38.453125 Z M 15.671875 -38.453125 "/></g></g></g><g fill="#fffbfa" fill-opacity="1"><g transform="translate(105.656424, 146.21814)"><g><path d="M 5.34375 0 L 3.375 0 C 2.894531 0 2.65625 -0.238281 2.65625 -0.71875 L 2.65625 -26.203125 C 2.65625 -26.679688 2.894531 -26.921875 3.375 -26.921875 L 10.484375 -26.921875 C 14.128906 -26.921875 16.796875 -26.128906 18.484375 -24.546875 C 20.179688 -22.972656 21.03125 -20.691406 21.03125 -17.703125 C 21.03125 -14.640625 20.171875 -12.320312 18.453125 -10.75 C 16.742188 -9.1875 14.160156 -8.40625 10.703125 -8.40625 L 6.0625 -8.40625 L 6.0625 -0.71875 C 6.0625 -0.238281 5.820312 0 5.34375 0 Z M 6.0625 -23.71875 L 6.0625 -11.625 L 10.265625 -11.625 C 10.628906 -11.625 11.0625 -11.632812 11.5625 -11.65625 C 12.0625 -11.675781 12.585938 -11.738281 13.140625 -11.84375 C 13.703125 -11.957031 14.25 -12.140625 14.78125 -12.390625 C 15.320312 -12.648438 15.804688 -13 16.234375 -13.4375 C 16.671875 -13.882812 17.019531 -14.453125 17.28125 -15.140625 C 17.550781 -15.828125 17.6875 -16.675781 17.6875 -17.6875 C 17.6875 -18.675781 17.554688 -19.515625 17.296875 -20.203125 C 17.035156 -20.890625 16.6875 -21.457031 16.25 -21.90625 C 15.820312 -22.351562 15.34375 -22.695312 14.8125 -22.9375 C 14.28125 -23.1875 13.738281 -23.363281 13.1875 -23.46875 C 12.632812 -23.582031 12.101562 -23.648438 11.59375 -23.671875 C 11.082031 -23.703125 10.640625 -23.71875 10.265625 -23.71875 Z M 6.0625 -23.71875 "/></g></g></g><g fill="#fffbfa" fill-opacity="1"><g transform="translate(142.345605, 146.21814)"><g><path d="M 15.53125 0.5625 C 13.976562 0.5625 12.492188 0.34375 11.078125 -0.09375 C 9.671875 -0.53125 8.382812 -1.160156 7.21875 -1.984375 C 6.0625 -2.804688 5.054688 -3.796875 4.203125 -4.953125 C 3.347656 -6.109375 2.6875 -7.398438 2.21875 -8.828125 C 1.757812 -10.265625 1.53125 -11.804688 1.53125 -13.453125 C 1.53125 -15.109375 1.757812 -16.648438 2.21875 -18.078125 C 2.6875 -19.503906 3.347656 -20.789062 4.203125 -21.9375 C 5.054688 -23.09375 6.0625 -24.082031 7.21875 -24.90625 C 8.382812 -25.726562 9.671875 -26.363281 11.078125 -26.8125 C 12.492188 -27.257812 13.976562 -27.484375 15.53125 -27.484375 C 17.082031 -27.484375 18.5625 -27.257812 19.96875 -26.8125 C 21.375 -26.363281 22.660156 -25.726562 23.828125 -24.90625 C 25.003906 -24.082031 26.015625 -23.09375 26.859375 -21.9375 C 27.710938 -20.789062 28.375 -19.503906 28.84375 -18.078125 C 29.3125 -16.648438 29.546875 -15.109375 29.546875 -13.453125 C 29.546875 -11.804688 29.3125 -10.265625 28.84375 -8.828125 C 28.375 -7.398438 27.710938 -6.109375 26.859375 -4.953125 C 26.015625 -3.796875 25.003906 -2.804688 23.828125 -1.984375 C 22.660156 -1.160156 21.375 -0.53125 19.96875 -0.09375 C 18.570312 0.34375 17.09375 0.5625 15.53125 0.5625 Z M 15.53125 -2.75 C 16.988281 -2.75 18.351562 -3.003906 19.625 -3.515625 C 20.894531 -4.035156 22.015625 -4.769531 22.984375 -5.71875 C 23.960938 -6.675781 24.722656 -7.804688 25.265625 -9.109375 C 25.816406 -10.421875 26.09375 -11.867188 26.09375 -13.453125 C 26.09375 -15.046875 25.816406 -16.492188 25.265625 -17.796875 C 24.722656 -19.109375 23.960938 -20.238281 22.984375 -21.1875 C 22.015625 -22.144531 20.894531 -22.878906 19.625 -23.390625 C 18.351562 -23.910156 16.988281 -24.171875 15.53125 -24.171875 C 14.070312 -24.171875 12.703125 -23.910156 11.421875 -23.390625 C 10.140625 -22.878906 9.015625 -22.144531 8.046875 -21.1875 C 7.078125 -20.238281 6.316406 -19.109375 5.765625 -17.796875 C 5.222656 -16.492188 4.953125 -15.046875 4.953125 -13.453125 C 4.953125 -11.878906 5.226562 -10.4375 5.78125 -9.125 C 6.332031 -7.820312 7.09375 -6.691406 8.0625 -5.734375 C 9.03125 -4.785156 10.148438 -4.050781 11.421875 -3.53125 C 12.703125 -3.007812 14.070312 -2.75 15.53125 -2.75 Z M 15.53125 -2.75 "/></g></g></g><g fill="#fffbfa" fill-opacity="1"><g transform="translate(187.797619, 146.21814)"><g><path d="M 5.375 0 L 3.375 0 C 2.894531 0 2.65625 -0.238281 2.65625 -0.71875 L 2.65625 -26.203125 C 2.65625 -26.679688 2.894531 -26.921875 3.375 -26.921875 L 5.375 -26.921875 C 5.851562 -26.921875 6.09375 -26.679688 6.09375 -26.203125 L 6.09375 -0.71875 C 6.09375 -0.238281 5.851562 0 5.375 0 Z M 5.375 0 "/></g></g></g><g fill="#fffbfa" fill-opacity="1"><g transform="translate(210.904414, 146.21814)"><g><path d="M 5.375 0 L 3.421875 0 C 2.941406 0 2.703125 -0.238281 2.703125 -0.71875 L 2.703125 -26.296875 C 2.703125 -26.742188 2.785156 -27.070312 2.953125 -27.28125 C 3.128906 -27.488281 3.351562 -27.570312 3.625 -27.53125 C 3.90625 -27.488281 4.179688 -27.296875 4.453125 -26.953125 L 20 -7.40625 L 20 -26.203125 C 20 -26.679688 20.238281 -26.921875 20.71875 -26.921875 L 22.671875 -26.921875 C 23.148438 -26.921875 23.390625 -26.679688 23.390625 -26.203125 L 23.390625 -0.609375 C 23.390625 -0.179688 23.300781 0.132812 23.125 0.34375 C 22.945312 0.5625 22.71875 0.644531 22.4375 0.59375 C 22.164062 0.539062 21.890625 0.34375 21.609375 0 L 6.078125 -19.640625 L 6.078125 -0.71875 C 6.078125 -0.238281 5.84375 0 5.375 0 Z M 5.375 0 "/></g></g></g><g fill="#fffbfa" fill-opacity="1"><g transform="translate(251.396671, 146.21814)"><g><path d="M 9.96875 0 L 7.953125 0 C 7.472656 0 7.234375 -0.238281 7.234375 -0.71875 L 7.234375 -23.71875 L 1.140625 -23.71875 C 0.660156 -23.71875 0.421875 -23.953125 0.421875 -24.421875 L 0.421875 -26.203125 C 0.421875 -26.679688 0.660156 -26.921875 1.140625 -26.921875 L 16.78125 -26.921875 C 17.257812 -26.921875 17.5 -26.679688 17.5 -26.203125 L 17.5 -24.421875 C 17.5 -23.953125 17.257812 -23.71875 16.78125 -23.71875 L 10.6875 -23.71875 L 10.6875 -0.71875 C 10.6875 -0.238281 10.445312 0 9.96875 0 Z M 9.96875 0 "/></g></g></g></svg>